# xmcd CD database file
#
# Track frame offsets:
#	182
#	15337
#	27522
#	42847
#	56940
#	72195
#	86565
#	99797
#	114927
#	127695
#	142277
#	153827
#	164262
#	175925
#	189722
#	198800
#	212422
#	226442
#	242357
#	263230
#
# Disc length: 3998 seconds
#
# Revision: 0
# Processed by: cddbd v1.5.1PL0 Copyright (c) Steve Scherf et al.
# Submitted via: CDex 1.51
#
DISCID=020f9c14
DTITLE=Billie Holiday - Dizionario Enciclopedico del Jazz - Volume 49
DYEAR=1992
DGENRE=Jazz
TTITLE0=Lover Man
TTITLE1=You Better Go Now
TTITLE2=Don't Explain
TTITLE3=Good Morning Heartache
TTITLE4=You're My Thrill
TTITLE5=Deep Song
TTITLE6=My Man
TTITLE7='Tain't Nobody's Bizness If I Do
TTITLE8=God Bless The Child
TTITLE9=God Bless The Child
TTITLE10=Now Or Never
TTITLE11=Be Fair To Me
TTITLE12=Rocky Mountain Blues
TTITLE13=Blue Turning Grey Over You
TTITLE14=Detour Head
TTITLE15=He's Funny That Way
TTITLE16=Willow Weep For Me
TTITLE17=I Only Have Eyes For For You
TTITLE18=My Man
TTITLE19=Fine And Mellow
EXTD=YEAR: 1992
EXTT0=
EXTT1=
EXTT2=
EXTT3=
EXTT4=
EXTT5=
EXTT6=
EXTT7=
EXTT8=
EXTT9=
EXTT10=
EXTT11=
EXTT12=
EXTT13=
EXTT14=
EXTT15=
EXTT16=
EXTT17=
EXTT18=
EXTT19=
PLAYORDER=
